<mxfile host="drawio-plugin" modified="2023-04-12T08:09:01.395Z" agent="5.0 (Windows NT 6.2; Win64; x64) AppleWebKit/537.36 (KHTML, like Gecko) Chrome/104.0.5112.102 Safari/537.36" etag="dDMAfgdSvanw8Ffn1mrm" version="20.5.3" type="embed"><diagram id="kaU-Bj5s0fkfEdamKGvU" name="Page-1"><mxGraphModel dx="725" dy="519" grid="0" gridSize="10" guides="1" tooltips="1" connect="1" arrows="1" fold="1" page="1" pageScale="1" pageWidth="850" pageHeight="1100" background="#ffffff" math="0" shadow="0"><root><mxCell id="0"/><mxCell id="1" parent="0"/><mxCell id="2" value="PM" style="shape=umlActor;verticalLabelPosition=bottom;verticalAlign=top;html=1;outlineConnect=0;fillColor=#f5f5f5;fontColor=#333333;strokeColor=#666666;" parent="1" vertex="1"><mxGeometry x="400" y="240" width="40" height="80" as="geometry"/></mxCell><mxCell id="4" value="Song managment" style="ellipse;whiteSpace=wrap;html=1;fillColor=#f5f5f5;fontColor=#333333;strokeColor=#666666;" parent="1" vertex="1"><mxGeometry x="40" y="80" width="120" height="40" as="geometry"/></mxCell><mxCell id="7" value="Login" style="ellipse;whiteSpace=wrap;html=1;fillColor=#f5f5f5;fontColor=#333333;strokeColor=#666666;" parent="1" vertex="1"><mxGeometry x="40" y="255" width="120" height="50" as="geometry"/></mxCell><mxCell id="8" value="PlayList management" style="ellipse;whiteSpace=wrap;html=1;fillColor=#f5f5f5;fontColor=#333333;strokeColor=#666666;" parent="1" vertex="1"><mxGeometry x="353" y="40" width="120" height="40" as="geometry"/></mxCell><mxCell id="9" value="MyPlaylist" style="ellipse;whiteSpace=wrap;html=1;fillColor=#f5f5f5;fontColor=#333333;strokeColor=#666666;" parent="1" vertex="1"><mxGeometry x="203" y="43" width="120" height="40" as="geometry"/></mxCell><mxCell id="10" style="edgeStyle=orthogonalEdgeStyle;rounded=0;orthogonalLoop=1;jettySize=auto;html=1;exitX=0.5;exitY=1;exitDx=0;exitDy=0;" parent="1" source="8" target="8" edge="1"><mxGeometry relative="1" as="geometry"/></mxCell><mxCell id="11" value="User management" style="ellipse;whiteSpace=wrap;html=1;fillColor=#f5f5f5;fontColor=#333333;strokeColor=#666666;" parent="1" vertex="1"><mxGeometry x="200" y="400" width="120" height="40" as="geometry"/></mxCell><mxCell id="12" value="Logout" style="ellipse;whiteSpace=wrap;html=1;fillColor=#f5f5f5;fontColor=#333333;strokeColor=#666666;" parent="1" vertex="1"><mxGeometry x="40" y="360" width="120" height="40" as="geometry"/></mxCell><mxCell id="14" value="" style="endArrow=classic;html=1;rounded=0;exitX=0.5;exitY=0.5;exitDx=0;exitDy=0;exitPerimeter=0;entryX=1;entryY=1;entryDx=0;entryDy=0;strokeColor=#000000;" parent="1" source="2" target="4" edge="1"><mxGeometry width="50" height="50" relative="1" as="geometry"><mxPoint x="350" y="240" as="sourcePoint"/><mxPoint x="400" y="190" as="targetPoint"/></mxGeometry></mxCell><mxCell id="18" value="" style="endArrow=classic;html=1;rounded=0;strokeColor=#000000;exitX=0.5;exitY=0.5;exitDx=0;exitDy=0;exitPerimeter=0;entryX=0.5;entryY=1;entryDx=0;entryDy=0;" parent="1" source="2" target="9" edge="1"><mxGeometry width="50" height="50" relative="1" as="geometry"><mxPoint x="380" y="290" as="sourcePoint"/><mxPoint x="420" y="90" as="targetPoint"/></mxGeometry></mxCell><mxCell id="19" value="" style="endArrow=classic;html=1;rounded=0;strokeColor=#000000;exitX=0.5;exitY=0.5;exitDx=0;exitDy=0;exitPerimeter=0;entryX=0.5;entryY=1;entryDx=0;entryDy=0;" parent="1" source="2" target="8" edge="1"><mxGeometry width="50" height="50" relative="1" as="geometry"><mxPoint x="350" y="310" as="sourcePoint"/><mxPoint x="400" y="260" as="targetPoint"/></mxGeometry></mxCell><mxCell id="20" value="" style="endArrow=classic;html=1;rounded=0;strokeColor=#000000;exitX=0.5;exitY=0.5;exitDx=0;exitDy=0;exitPerimeter=0;entryX=0.5;entryY=0;entryDx=0;entryDy=0;" parent="1" source="2" target="11" edge="1"><mxGeometry width="50" height="50" relative="1" as="geometry"><mxPoint x="350" y="310" as="sourcePoint"/><mxPoint x="400" y="260" as="targetPoint"/></mxGeometry></mxCell><mxCell id="21" value="" style="endArrow=classic;html=1;rounded=0;strokeColor=#000000;entryX=0.958;entryY=0.29;entryDx=0;entryDy=0;entryPerimeter=0;" parent="1" target="12" edge="1"><mxGeometry width="50" height="50" relative="1" as="geometry"><mxPoint x="420" y="280" as="sourcePoint"/><mxPoint x="400" y="260" as="targetPoint"/></mxGeometry></mxCell><mxCell id="22" value="" style="endArrow=classic;html=1;rounded=0;strokeColor=#000000;entryX=1;entryY=0.5;entryDx=0;entryDy=0;" parent="1" target="7" edge="1"><mxGeometry width="50" height="50" relative="1" as="geometry"><mxPoint x="420" y="280" as="sourcePoint"/><mxPoint x="400" y="220" as="targetPoint"/></mxGeometry></mxCell><mxCell id="23" value="" style="endArrow=classic;html=1;rounded=0;strokeColor=#000000;dashed=1;exitX=0.5;exitY=1;exitDx=0;exitDy=0;" parent="1" source="4" target="7" edge="1"><mxGeometry width="50" height="50" relative="1" as="geometry"><mxPoint x="350" y="270" as="sourcePoint"/><mxPoint x="400" y="220" as="targetPoint"/></mxGeometry></mxCell><mxCell id="24" value="" style="endArrow=classic;html=1;rounded=0;dashed=1;strokeColor=#000000;exitX=0.5;exitY=0;exitDx=0;exitDy=0;entryX=0.5;entryY=1;entryDx=0;entryDy=0;" parent="1" source="12" target="7" edge="1"><mxGeometry width="50" height="50" relative="1" as="geometry"><mxPoint x="350" y="270" as="sourcePoint"/><mxPoint x="400" y="220" as="targetPoint"/></mxGeometry></mxCell><mxCell id="28" value="" style="endArrow=classic;html=1;rounded=0;dashed=1;strokeColor=#000000;entryX=1;entryY=0;entryDx=0;entryDy=0;" parent="1" target="7" edge="1"><mxGeometry width="50" height="50" relative="1" as="geometry"><mxPoint x="238" y="84" as="sourcePoint"/><mxPoint x="400" y="220" as="targetPoint"/></mxGeometry></mxCell><mxCell id="29" value="" style="endArrow=classic;html=1;rounded=0;dashed=1;strokeColor=#000000;exitX=0.417;exitY=-0.03;exitDx=0;exitDy=0;exitPerimeter=0;" parent="1" source="11" edge="1"><mxGeometry width="50" height="50" relative="1" as="geometry"><mxPoint x="350" y="290" as="sourcePoint"/><mxPoint x="120" y="300" as="targetPoint"/></mxGeometry></mxCell><mxCell id="30" value="" style="endArrow=classic;html=1;rounded=0;dashed=1;strokeColor=#000000;exitX=0.092;exitY=0.94;exitDx=0;exitDy=0;entryX=0.948;entryY=0.292;entryDx=0;entryDy=0;entryPerimeter=0;exitPerimeter=0;" parent="1" source="8" target="7" edge="1"><mxGeometry width="50" height="50" relative="1" as="geometry"><mxPoint x="350" y="290" as="sourcePoint"/><mxPoint x="400" y="240" as="targetPoint"/></mxGeometry></mxCell><mxCell id="31" value="&lt;font style=&quot;font-size: 14px;&quot; color=&quot;#000000&quot;&gt;Mô hình UseCase PM&lt;/font&gt;" style="text;html=1;align=center;verticalAlign=middle;resizable=0;points=[];autosize=1;strokeColor=none;fillColor=none;" parent="1" vertex="1"><mxGeometry x="265" y="500" width="160" height="30" as="geometry"/></mxCell><mxCell id="32" value="account settings" style="ellipse;whiteSpace=wrap;html=1;fontSize=14;fontColor=#333333;fillColor=#f5f5f5;strokeColor=#666666;" parent="1" vertex="1"><mxGeometry x="360" y="400" width="120" height="40" as="geometry"/></mxCell><mxCell id="33" value="" style="endArrow=classic;html=1;rounded=0;fontSize=14;fontColor=#000000;strokeColor=#000000;exitX=0.5;exitY=0.5;exitDx=0;exitDy=0;exitPerimeter=0;entryX=0.5;entryY=0;entryDx=0;entryDy=0;dashed=1;" parent="1" source="2" target="32" edge="1"><mxGeometry width="50" height="50" relative="1" as="geometry"><mxPoint x="350" y="320" as="sourcePoint"/><mxPoint x="400" y="270" as="targetPoint"/></mxGeometry></mxCell><mxCell id="34" value="" style="endArrow=classic;html=1;rounded=0;dashed=1;strokeColor=#000000;fontSize=14;fontColor=#000000;exitX=0.323;exitY=0.065;exitDx=0;exitDy=0;exitPerimeter=0;entryX=1;entryY=1;entryDx=0;entryDy=0;" parent="1" source="32" target="7" edge="1"><mxGeometry width="50" height="50" relative="1" as="geometry"><mxPoint x="350" y="320" as="sourcePoint"/><mxPoint x="400" y="270" as="targetPoint"/></mxGeometry></mxCell></root></mxGraphModel></diagram></mxfile>